<svg id="Capa_1" data-name="Capa 1" xmlns="http://www.w3.org/2000/svg" viewBox="0 0 50 50"><defs><style>.cls-1{fill:#008571;}.cls-2,.cls-3{fill:#fff;}.cls-3{font-size:7.6px;font-family:BritannicBold, Britannic Bold;}.cls-4{fill:none;stroke:#fff;stroke-miterlimit:10;stroke-width:0.5px;}</style></defs><title>abarrote</title><circle class="cls-1" cx="25" cy="25" r="25"/><circle class="cls-1" cx="25" cy="25" r="22.75"/><path class="cls-2" d="M25,2.5A22.5,22.5,0,1,1,2.5,25,22.52,22.52,0,0,1,25,2.5M25,2A23,23,0,1,0,48,25,23,23,0,0,0,25,2Z" transform="translate(0 0)"/><text class="cls-3" transform="translate(6.28 34.06) rotate(-15.46)">ABARROTES</text><line class="cls-4" x1="7.06" y1="35.24" x2="44.94" y2="24.76"/><path class="cls-2" d="M22.09,22a.38.38,0,0,0-.25.46.35.35,0,0,0,.44.27.39.39,0,0,0,.25-.47A.35.35,0,0,0,22.09,22Zm-1.82-2.66.1.37.34-.1,1,1.21-.11.52a.37.37,0,0,0,0,.27.35.35,0,0,0,.42.18l2-.6-.1-.37-2.06.6s-.05,0-.06,0v0l.08-.35,1.38-.41a.35.35,0,0,0,.25-.27l.31-1.36a.28.28,0,0,0,0-.09.2.2,0,0,0,0-.08.18.18,0,0,0-.08-.05h-.1l-2.53.74-.27-.32Zm3.55,2.15a.39.39,0,0,0-.25.47.35.35,0,0,0,.44.26.38.38,0,0,0,.25-.46A.36.36,0,0,0,23.82,21.44Z" transform="translate(0 0)"/><line class="cls-4" x1="5.48" y1="26.44" x2="19.52" y2="22.56"/><line class="cls-4" x1="25.55" y1="20.7" x2="41.45" y2="16.3"/></svg>