<svg width="36" height="40" viewBox="0 0 36 40" fill="none" xmlns="http://www.w3.org/2000/svg">
<g clip-path="url(#clip0_26_20)">
<path d="M32.1429 2.5H3.85714C2.83416 2.5 1.85309 2.89509 1.12973 3.59835C0.406376 4.30161 0 5.25544 0 6.25L0 33.75C0 34.7446 0.406376 35.6984 1.12973 36.4016C1.85309 37.1049 2.83416 37.5 3.85714 37.5H14.8862V25.6008H9.82366V20H14.8862V15.7312C14.8862 10.8758 17.8594 8.19375 22.4132 8.19375C24.5941 8.19375 26.8746 8.57188 26.8746 8.57188V13.3375H24.3619C21.8861 13.3375 21.1138 14.8312 21.1138 16.3633V20H26.6408L25.7569 25.6008H21.1138V37.5H32.1429C33.1658 37.5 34.1469 37.1049 34.8703 36.4016C35.5936 35.6984 36 34.7446 36 33.75V6.25C36 5.25544 35.5936 4.30161 34.8703 3.59835C34.1469 2.89509 33.1658 2.5 32.1429 2.5Z" fill="white"/>
</g>
<defs>
<clipPath id="clip0_26_20">
<rect width="36" height="40" rx="2" fill="white"/>
</clipPath>
</defs>
</svg>
