<svg width="53" height="53" viewBox="0 0 53 53" fill="none" xmlns="http://www.w3.org/2000/svg">
<path d="M46.2577 18.3402C46.2355 16.6676 45.9224 15.0117 45.3325 13.4465C44.8209 12.1263 44.0396 10.9272 43.0384 9.92605C42.0372 8.92486 40.8382 8.14353 39.5179 7.63197C37.9728 7.05196 36.3405 6.73834 34.6905 6.70447C32.5661 6.60951 31.8925 6.58301 26.4998 6.58301C21.107 6.58301 20.4158 6.58301 18.3069 6.70447C16.6576 6.73859 15.0261 7.05221 13.4817 7.63197C12.1612 8.14317 10.962 8.92438 9.96077 9.92561C8.95954 10.9268 8.17833 12.1261 7.66712 13.4465C7.08596 14.9904 6.77302 16.6223 6.74183 18.2717C6.64687 20.3983 6.61816 21.0719 6.61816 26.4646C6.61816 31.8574 6.61816 32.5464 6.74183 34.6576C6.77496 36.3094 7.08633 37.9391 7.66712 39.4872C8.17919 40.8072 8.96098 42.006 9.96254 43.0068C10.9641 44.0076 12.1634 44.7885 13.4839 45.2995C15.024 45.9028 16.6559 46.2389 18.3091 46.2933C20.4357 46.3882 21.1092 46.4169 26.502 46.4169C31.8947 46.4169 32.586 46.4169 34.6949 46.2933C36.3449 46.2608 37.9773 45.9479 39.5223 45.368C40.8422 44.8558 42.041 44.0743 43.0421 43.0732C44.0432 42.072 44.8247 40.8733 45.3369 39.5534C45.9177 38.0076 46.229 36.3778 46.2622 34.7238C46.3571 32.5994 46.3858 31.9258 46.3858 26.5309C46.3814 21.1381 46.3814 20.4536 46.2577 18.3402V18.3402ZM26.4865 36.6627C20.8465 36.6627 16.2774 32.0937 16.2774 26.4536C16.2774 20.8135 20.8465 16.2445 26.4865 16.2445C29.1942 16.2445 31.7909 17.3201 33.7055 19.2347C35.6201 21.1492 36.6957 23.746 36.6957 26.4536C36.6957 29.1612 35.6201 31.758 33.7055 33.6725C31.7909 35.5871 29.1942 36.6627 26.4865 36.6627V36.6627ZM37.102 18.2474C35.7836 18.2474 34.7214 17.183 34.7214 15.8668C34.7214 15.5544 34.783 15.2449 34.9025 14.9563C35.0221 14.6676 35.1974 14.4053 35.4183 14.1843C35.6393 13.9633 35.9016 13.7881 36.1903 13.6685C36.479 13.5489 36.7884 13.4874 37.1009 13.4874C37.4134 13.4874 37.7228 13.5489 38.0115 13.6685C38.3002 13.7881 38.5625 13.9633 38.7834 14.1843C39.0044 14.4053 39.1797 14.6676 39.2992 14.9563C39.4188 15.2449 39.4804 15.5544 39.4804 15.8668C39.4804 17.183 38.416 18.2474 37.102 18.2474Z" fill="white"/>
<path d="M26.4866 33.0853C30.1492 33.0853 33.1182 30.1162 33.1182 26.4537C33.1182 22.7911 30.1492 19.822 26.4866 19.822C22.8241 19.822 19.855 22.7911 19.855 26.4537C19.855 30.1162 22.8241 33.0853 26.4866 33.0853Z" fill="white"/>
</svg>
