<svg width="36" height="40" viewBox="0 0 36 40" fill="none" xmlns="http://www.w3.org/2000/svg">
<path d="M18 9.59375C12.158 9.59375 7.40893 14.2109 7.40089 19.8906C7.40089 21.8359 7.96339 23.7344 9.02411 25.3672L9.27321 25.7578L8.20446 29.5547L12.2143 28.5312L12.6 28.7578C14.2232 29.6953 16.0875 30.1953 17.992 30.1953H18C23.8339 30.1953 28.7116 25.5781 28.7116 19.8984C28.7116 17.1484 27.4902 14.5625 25.4893 12.6172C23.4804 10.6641 20.8286 9.59375 18 9.59375ZM24.2277 24.3125C23.9625 25.0391 22.6929 25.6953 22.0821 25.7812C21.0696 25.9297 20.2821 25.8516 18.2652 25.0078C15.075 23.6641 12.9857 20.5391 12.825 20.3359C12.6643 20.1328 11.5232 18.6562 11.5232 17.1328C11.5232 15.6094 12.3429 14.8594 12.6402 14.5469C12.9295 14.2344 13.275 14.1562 13.492 14.1562C13.7009 14.1562 13.9179 14.1562 14.1027 14.1641C14.2955 14.1719 14.5607 14.0938 14.8179 14.6953C15.083 15.3125 15.7179 16.8359 15.7982 16.9922C15.8786 17.1484 15.9348 17.3281 15.8223 17.5312C15.2116 18.7188 14.5607 18.6719 14.8902 19.2188C16.1196 21.2734 17.3491 21.9844 19.2214 22.8984C19.5429 23.0547 19.7277 23.0312 19.9125 22.8203C20.0973 22.6172 20.708 21.9141 20.917 21.6094C21.1259 21.2969 21.3429 21.3516 21.6321 21.4531C21.9214 21.5547 23.4884 22.3047 23.8098 22.4609C24.1312 22.6172 24.3402 22.6953 24.4205 22.8203C24.4929 22.9688 24.4929 23.5938 24.2277 24.3125ZM32.1429 2.5H3.85714C1.72768 2.5 0 4.17969 0 6.25V33.75C0 35.8203 1.72768 37.5 3.85714 37.5H32.1429C34.2723 37.5 36 35.8203 36 33.75V6.25C36 4.17969 34.2723 2.5 32.1429 2.5ZM17.992 32.2812C15.8545 32.2812 13.7571 31.7578 11.9009 30.7734L5.14286 32.5L6.95089 26.0781C5.83393 24.2031 5.24732 22.0703 5.24732 19.8828C5.25536 13.0547 10.9687 7.5 17.992 7.5C21.3991 7.5 24.5973 8.78906 27.008 11.1328C29.4107 13.4766 30.8571 16.5859 30.8571 19.8984C30.8571 26.7266 25.0152 32.2812 17.992 32.2812Z" fill="white"/>
</svg>
